<svg width="25" height="15" viewBox="0 0 25 15" fill="none" xmlns="http://www.w3.org/2000/svg">
<path fill-rule="evenodd" clip-rule="evenodd" d="M7.25899 14.2917C8.87927 14.2917 10.3751 13.7637 11.5796 12.8723C10.0517 11.4356 9.09921 9.40655 9.09921 7.15748C9.09921 4.90824 10.0517 2.87918 11.5796 1.44269C10.3751 0.551098 8.87927 0.0230713 7.25899 0.0230713C3.27348 0.0230713 0.042572 3.21727 0.042572 7.15748C0.042572 11.0975 3.27348 14.2917 7.25899 14.2917ZM17.0752 0.0230713C15.4548 0.0230713 13.9591 0.551098 12.7546 1.44269C14.2824 2.87918 15.2348 4.90824 15.2348 7.15748C15.2348 9.40655 14.2824 11.4356 12.7546 12.8723C13.9591 13.7637 15.4548 14.2917 17.0752 14.2917C21.0606 14.2917 24.2915 11.0975 24.2915 7.15748C24.2915 3.21727 21.0606 0.0230713 17.0752 0.0230713ZM14.4752 7.15748C14.4752 5.09121 13.5867 3.2301 12.1671 1.92727C10.7473 3.2301 9.85882 5.09121 9.85882 7.15748C9.85882 9.22357 10.7473 11.0847 12.1671 12.3875C13.5867 11.0847 14.4752 9.22357 14.4752 7.15748Z" fill="#EDEDED"/>
</svg>
