<svg width="34" height="26" viewBox="0 0 34 26" fill="none" xmlns="http://www.w3.org/2000/svg">
<circle cx="23.423" cy="10.5001" r="10.5001" fill="white"/>
<circle cx="10.5001" cy="10.5003" r="10.5001" fill="white"/>
<circle cx="23.423" cy="10.5001" r="10.0001" stroke="#000055"/>
<circle cx="10.5001" cy="10.5001" r="10.0001" stroke="#000055"/>
<path d="M6.07778 25.9417V24.1879C6.07778 23.5156 5.66952 23.0771 4.96962 23.0771C4.61968 23.0771 4.24057 23.194 3.97811 23.574C3.77397 23.2525 3.48235 23.0771 3.04491 23.0771C2.75329 23.0771 2.46167 23.1648 2.22838 23.4864V23.1356H1.61597V25.9417H2.22838V24.3925C2.22838 23.8956 2.49083 23.6617 2.8991 23.6617C3.30737 23.6617 3.51151 23.9248 3.51151 24.3925V25.9417H4.12392V24.3925C4.12392 23.8956 4.41554 23.6617 4.79465 23.6617C5.20292 23.6617 5.40706 23.9248 5.40706 24.3925V25.9417H6.07778V25.9417ZM15.1472 23.1356H14.1557V22.2879H13.5433V23.1356H12.9892V23.691H13.5433V24.9771C13.5433 25.6202 13.8058 26.0001 14.5057 26.0001C14.7681 26.0001 15.0598 25.9125 15.2639 25.7955L15.0889 25.2694C14.9139 25.3863 14.7098 25.4155 14.564 25.4155C14.2724 25.4155 14.1557 25.2402 14.1557 24.9479V23.691H15.1472V23.1356V23.1356ZM20.3381 23.0771C19.9882 23.0771 19.7549 23.2525 19.6091 23.4864V23.1356H18.9967V25.9417H19.6091V24.3633C19.6091 23.8956 19.8132 23.6325 20.1923 23.6325C20.309 23.6325 20.4548 23.6617 20.5714 23.691L20.7464 23.1064C20.6297 23.0771 20.4548 23.0771 20.3381 23.0771V23.0771ZM12.4935 23.3694C12.2019 23.1648 11.7936 23.0771 11.3562 23.0771C10.6563 23.0771 10.1897 23.4279 10.1897 23.9833C10.1897 24.4509 10.5396 24.714 11.152 24.8017L11.4436 24.8309C11.7644 24.8894 11.9394 24.9771 11.9394 25.1232C11.9394 25.3279 11.7061 25.474 11.2978 25.474C10.8896 25.474 10.5688 25.3279 10.3646 25.1817L10.073 25.6494C10.3938 25.8832 10.8312 26.0001 11.2687 26.0001C12.0852 26.0001 12.5518 25.6202 12.5518 25.094C12.5518 24.5971 12.1727 24.334 11.5894 24.2463L11.2978 24.2171C11.0354 24.1879 10.8312 24.1294 10.8312 23.954C10.8312 23.7494 11.0354 23.6325 11.3562 23.6325C11.7061 23.6325 12.056 23.7787 12.231 23.8663L12.4935 23.3694V23.3694ZM28.766 23.0771C28.4161 23.0771 28.1828 23.2525 28.0369 23.4864V23.1356H27.4245V25.9417H28.0369V24.3633C28.0369 23.8956 28.2411 23.6325 28.6202 23.6325C28.7368 23.6325 28.8827 23.6617 28.9993 23.691L29.1743 23.1064C29.0576 23.0771 28.8827 23.0771 28.766 23.0771V23.0771ZM20.9505 24.5386C20.9505 25.3863 21.5338 26.0001 22.4378 26.0001C22.8461 26.0001 23.1377 25.9125 23.4293 25.6786L23.1377 25.1817C22.9044 25.3571 22.6711 25.4448 22.4086 25.4448C21.9129 25.4448 21.5629 25.094 21.5629 24.5386C21.5629 24.0125 21.9129 23.6617 22.4086 23.6325C22.6711 23.6325 22.9044 23.7202 23.1377 23.8956L23.4293 23.3987C23.1377 23.1648 22.8461 23.0771 22.4378 23.0771C21.5338 23.0771 20.9505 23.691 20.9505 24.5386V24.5386ZM26.608 24.5386V23.1356H25.9956V23.4864C25.7915 23.2233 25.4998 23.0771 25.1207 23.0771C24.3333 23.0771 23.7209 23.691 23.7209 24.5386C23.7209 25.3863 24.3333 26.0001 25.1207 26.0001C25.529 26.0001 25.8206 25.854 25.9956 25.5909V25.9417H26.608V24.5386ZM24.3625 24.5386C24.3625 24.0417 24.6833 23.6325 25.2082 23.6325C25.704 23.6325 26.0539 24.0125 26.0539 24.5386C26.0539 25.0355 25.704 25.4448 25.2082 25.4448C24.6833 25.4155 24.3625 25.0355 24.3625 24.5386ZM17.0428 23.0771C16.2262 23.0771 15.643 23.6617 15.643 24.5386C15.643 25.4155 16.2262 26.0001 17.0719 26.0001C17.4802 26.0001 17.8885 25.8832 18.2093 25.6202L17.9177 25.1817C17.6844 25.3571 17.3927 25.474 17.1011 25.474C16.722 25.474 16.3429 25.2986 16.2554 24.8017H18.3259C18.3259 24.714 18.3259 24.6556 18.3259 24.5679C18.3551 23.6617 17.8302 23.0771 17.0428 23.0771V23.0771ZM17.0428 23.6033C17.4219 23.6033 17.6844 23.8371 17.7427 24.2756H16.2846C16.3429 23.8956 16.6054 23.6033 17.0428 23.6033ZM32.2363 24.5386V22.0248H31.6239V23.4864C31.4198 23.2233 31.1281 23.0771 30.749 23.0771C29.9617 23.0771 29.3493 23.691 29.3493 24.5386C29.3493 25.3863 29.9617 26.0001 30.749 26.0001C31.1573 26.0001 31.4489 25.854 31.6239 25.5909V25.9417H32.2363V24.5386ZM29.9908 24.5386C29.9908 24.0417 30.3116 23.6325 30.8365 23.6325C31.3323 23.6325 31.6822 24.0125 31.6822 24.5386C31.6822 25.0355 31.3323 25.4448 30.8365 25.4448C30.3116 25.4155 29.9908 25.0355 29.9908 24.5386ZM9.51893 24.5386V23.1356H8.90652V23.4864C8.70239 23.2233 8.41077 23.0771 8.03166 23.0771C7.24428 23.0771 6.63187 23.691 6.63187 24.5386C6.63187 25.3863 7.24428 26.0001 8.03166 26.0001C8.43993 26.0001 8.73155 25.854 8.90652 25.5909V25.9417H9.51893V24.5386ZM7.24427 24.5386C7.24427 24.0417 7.56506 23.6325 8.08998 23.6325C8.58573 23.6325 8.93569 24.0125 8.93569 24.5386C8.93569 25.0355 8.58573 25.4448 8.08998 25.4448C7.56506 25.4155 7.24427 25.0355 7.24427 24.5386Z" fill="white"/>
</svg>
