<svg width="27" height="18" viewBox="0 0 27 18" fill="none" xmlns="http://www.w3.org/2000/svg">
<path d="M25.0037 2.02368H2.03104V4.07625H25.0037V2.02368Z" fill="#EDEDED"/>
<path d="M12.7998 6.34182L11.605 11.9885H10.16L11.3549 6.34182H12.7998ZM18.8791 9.98798L19.6397 7.86757L20.0772 9.98798H18.8791ZM20.492 11.9885H21.8282L20.6609 6.34182H19.4283C19.1503 6.34182 18.9164 6.5048 18.8127 6.75589L16.6443 11.9885H18.162L18.4632 11.1453H20.3168L20.492 11.9885ZM16.7198 10.1451C16.7261 8.65495 14.6819 8.57229 14.6956 7.90656C14.7001 7.70414 14.8908 7.48847 15.3083 7.43344C15.5153 7.40648 16.0862 7.38475 16.7335 7.68621L16.9866 6.4882C16.639 6.3612 16.1916 6.23877 15.635 6.23877C14.2065 6.23877 13.2016 7.00588 13.1935 8.10519C13.1843 8.91819 13.9115 9.37149 14.458 9.64208C15.0215 9.91869 15.2102 10.0966 15.2077 10.3437C15.2039 10.7226 14.7581 10.8903 14.3435 10.8967C13.6164 10.9082 13.1951 10.6981 12.8593 10.5398L12.597 11.7775C12.9352 11.934 13.5585 12.0702 14.2035 12.0772C15.7221 12.0772 16.7153 11.3191 16.7198 10.1451ZM10.735 6.34182L8.39367 11.9885H6.8664L5.7141 7.48212C5.64428 7.20495 5.58345 7.10313 5.37114 6.98605C5.02347 6.79522 4.4499 6.61687 3.94537 6.50591L3.97957 6.34182H6.4385C6.75164 6.34182 7.03344 6.5527 7.10513 6.91731L7.71378 10.1852L9.21693 6.34182H10.735Z" fill="#EDEDED"/>
<path d="M25.0036 14.24H2.03101V16.2928H25.0036V14.24Z" fill="#EDEDED"/>
<rect x="1.07389" y="1.04575" width="24.887" height="16.2248" stroke="#EDEDED" stroke-width="0.638129"/>
</svg>
