<svg width="43" height="27" viewBox="0 0 43 27" fill="none" xmlns="http://www.w3.org/2000/svg">
<path d="M5.30835 1.27541L11.4954 21.1431L17.5142 1.27541H22.02L13.681 26.3259H9.10798L0.668091 1.27541H5.30835Z" fill="#EDEDED"/>
<path d="M30.2245 14.9582C29.2606 14.7509 28.3527 14.4744 27.5009 14.1289C26.6491 13.7604 25.8981 13.2881 25.248 12.7123C24.6203 12.1364 24.116 11.4569 23.7349 10.6737C23.3762 9.86745 23.1969 8.93453 23.1969 7.87493C23.1969 6.70014 23.4659 5.67509 24.0039 4.79976C24.5419 3.92443 25.248 3.19883 26.1223 2.62296C26.9965 2.02405 27.9828 1.57487 29.0813 1.27541C30.1797 0.97596 31.2893 0.826233 32.4101 0.826233C33.6206 0.826233 34.7527 0.97596 35.8063 1.27541C36.8599 1.55183 37.8014 2.00101 38.6308 2.62296C39.4602 3.22187 40.1551 3.99354 40.7155 4.93797C41.2984 5.85937 41.7131 6.97656 41.9597 8.28956H37.8238C37.6444 7.5294 37.3642 6.90746 36.9832 6.42373C36.6021 5.91696 36.1537 5.52536 35.6382 5.24894C35.1226 4.94949 34.5622 4.74217 33.9569 4.627C33.3741 4.48879 32.78 4.41969 32.1748 4.41969C31.704 4.41969 31.1884 4.47727 30.628 4.59245C30.09 4.70762 29.5856 4.90342 29.1149 5.17984C28.6666 5.43322 28.2855 5.76723 27.9716 6.18186C27.6578 6.59649 27.5009 7.11477 27.5009 7.73672C27.5009 8.70418 27.8371 9.45282 28.5096 9.98263C29.2046 10.4894 30.0788 10.8464 31.1324 11.0537L34.125 11.6411C35.201 11.8485 36.2322 12.1249 37.2185 12.4704C38.2273 12.7929 39.1127 13.2421 39.8749 13.8179C40.6595 14.3938 41.2872 15.1079 41.7579 15.9602C42.2287 16.8125 42.464 17.8721 42.464 19.139C42.464 20.4059 42.1838 21.5231 41.6234 22.4906C41.063 23.435 40.3232 24.2297 39.4042 24.8747C38.5075 25.4967 37.4763 25.9689 36.3107 26.2914C35.1674 26.6139 33.9905 26.7751 32.78 26.7751C31.3229 26.7751 29.9891 26.5793 28.7786 26.1877C27.5906 25.7961 26.5482 25.2318 25.6515 24.4946C24.7773 23.7345 24.0711 22.8131 23.5331 21.7304C22.9951 20.6478 22.6589 19.4154 22.5244 18.0333H26.7275C27.1086 19.761 27.8259 21.0509 28.8795 21.9032C29.9331 22.7555 31.3005 23.1816 32.9818 23.1816C33.6991 23.1816 34.3716 23.101 34.9993 22.9398C35.6494 22.7785 36.2098 22.5367 36.6805 22.2142C37.1513 21.8917 37.5212 21.5001 37.7902 21.0394C38.0592 20.5557 38.1937 20.0143 38.1937 19.4154C38.1937 18.7705 38.0367 18.2291 37.7229 17.7915C37.4315 17.3538 37.0392 16.9852 36.546 16.6858C36.0753 16.3863 35.5373 16.156 34.932 15.9947C34.3492 15.8105 33.7664 15.6607 33.1835 15.5456L30.2245 14.9582Z" fill="#EDEDED"/>
</svg>
