<svg width="57" height="38" viewBox="0 0 57 38" fill="none" xmlns="http://www.w3.org/2000/svg">
<rect x="0.799988" y="0.646057" width="56.1967" height="36.5279" rx="2.80984" fill="#EDEDED"/>
<path d="M49.972 19.8596V17.939H46.8688V14.6952H44.6458V17.939H41.5425V19.8596H44.6458V23.1247H46.8688V19.8596H49.972Z" fill="#00003D"/>
<path d="M17.7111 9.07556C18.8148 9.07556 19.8315 9.2001 20.761 9.44919C21.6905 9.68048 22.4941 10.0363 23.1718 10.5167C23.8496 10.9793 24.3724 11.5486 24.7404 12.2247C25.1277 12.9008 25.3213 13.6659 25.3213 14.5199C25.3213 15.534 25.0889 16.5036 24.6242 17.4288C24.1788 18.354 23.5204 19.2525 22.649 20.1243C21.797 20.9961 20.7513 21.8501 19.512 22.6863C18.2726 23.5047 16.8784 24.3231 15.3292 25.1416H25.4084V28.7444H9.22943V25.1416C10.643 24.1986 12.0276 23.2823 13.3831 22.3927C14.7386 21.4854 15.9392 20.6047 16.9849 19.7507C18.0499 18.8789 18.902 18.0337 19.541 17.2153C20.18 16.3969 20.4995 15.5874 20.4995 14.7867C20.4995 13.9505 20.2091 13.3367 19.6281 12.9453C19.0472 12.5361 18.3598 12.3315 17.5658 12.3315C17.1398 12.3315 16.7138 12.4026 16.2878 12.545C15.8811 12.6695 15.5132 12.883 15.184 13.1855C14.8742 13.4879 14.6224 13.906 14.4288 14.4398C14.2351 14.9558 14.1577 15.5963 14.1964 16.3613H9.4618C9.42308 15.2226 9.59736 14.1996 9.98465 13.2922C10.3913 12.3848 10.9626 11.6198 11.6984 10.9971C12.4342 10.3744 13.3153 9.90288 14.3416 9.58263C15.368 9.24458 16.4911 9.07556 17.7111 9.07556Z" fill="#00003D"/>
<path d="M32.5641 28.7444V15.7475H27.7714V12.5183C28.6428 12.5005 29.398 12.4293 30.0371 12.3048C30.6955 12.1624 31.257 11.9667 31.7218 11.7176C32.1865 11.4686 32.5738 11.1572 32.8836 10.7836C33.1935 10.3922 33.4646 9.92957 33.697 9.39581H37.3278V28.7444H32.5641Z" fill="#00003D"/>
</svg>
